<svg width="35" height="35" viewBox="0 0 35 35" fill="none" xmlns="http://www.w3.org/2000/svg">
<rect width="35" height="35" rx="11.25" fill="#00CD2D" fill-opacity="0.8"/>
<path fill-rule="evenodd" clip-rule="evenodd" d="M15.25 19.75L24.25 10.75L26.5 13L17.5 22L15.25 19.75ZM13 22L15.25 19.75L10.75 15.25L8.5 17.5L13 22Z" fill="white"/>
<path fill-rule="evenodd" clip-rule="evenodd" d="M15.25 19.75L24.25 10.75L26.5 13L17.5 22L15.25 19.75ZM13 22L15.25 19.75L10.75 15.25L8.5 17.5L13 22Z" fill="#00CD2D" fill-opacity="0.1"/>
<path d="M13 22L15.25 24.25L17.5 22L15.25 19.75L13 22Z" fill="white"/>
<path d="M13 22L15.25 24.25L17.5 22L15.25 19.75L13 22Z" fill="#00CD2D" fill-opacity="0.1"/>
</svg>
