<svg width="35" height="35" viewBox="0 0 35 35" fill="none" xmlns="http://www.w3.org/2000/svg">
<rect width="35" height="35" rx="11.25" fill="#FFAA04" fill-opacity="0.8"/>
<path fill-rule="evenodd" clip-rule="evenodd" d="M19.5705 25.2274C15.3028 26.3709 10.9161 23.8383 9.77258 19.5705C8.62904 15.3028 11.1617 10.9161 15.4294 9.77259C19.6972 8.62905 24.0839 11.1617 25.2274 15.4294L22.8126 16.0765C22.0264 13.1424 19.0105 11.4012 16.0765 12.1874C13.1424 12.9736 11.4012 15.9894 12.1874 18.9235C12.9736 21.8576 15.9894 23.5988 18.9235 22.8126L19.5705 25.2274Z" fill="white"/>
<path fill-rule="evenodd" clip-rule="evenodd" d="M19.5705 25.2274C15.3028 26.3709 10.9161 23.8383 9.77258 19.5705C8.62904 15.3028 11.1617 10.9161 15.4294 9.77259C19.6972 8.62905 24.0839 11.1617 25.2274 15.4294L22.8126 16.0765C22.0264 13.1424 19.0105 11.4012 16.0765 12.1874C13.1424 12.9736 11.4012 15.9894 12.1874 18.9235C12.9736 21.8576 15.9894 23.5988 18.9235 22.8126L19.5705 25.2274Z" fill="#FFAA04" fill-opacity="0.1"/>
</svg>
